HIERARCHY
ROOT pelvis
{
  OFFSET 0 100 0
  CHANNELS 6 Xposition Yposition Zposition Zrotation Xrotation Yrotation
  JOINT pelvis_right_femur
  {
    OFFSET -10.78128 -3.44521 -0.5502486
    CHANNELS 3 Zrotation Xrotation Yrotation
    JOINT right_femur_tibia
    {
      OFFSET -0.8047443 -44.0398 -0.1307829
      CHANNELS 3 Zrotation Xrotation Yrotation
      JOINT right_tibia_foot
      {
        OFFSET 3.006224 -47.83518 -5
        CHANNELS 3 Zrotation Xrotation Yrotation
        End Site
        {
          OFFSET 0 -5 15
        }
      }
    }
  }
  JOINT pelvis_left_femur
  {
    OFFSET 10.78128 -3.44521 -0.5502486
    CHANNELS 3 Zrotation Xrotation Yrotation
    JOINT left_femur_tibia
    {
      OFFSET 0.8047443 -44.0398 -0.1307829
      CHANNELS 3 Zrotation Xrotation Yrotation
      JOINT left_tibia_foot
      {
        OFFSET -4.370144 -48.10324 -4.275266
        CHANNELS 3 Zrotation Xrotation Yrotation
        End Site
        {
          OFFSET 0 -5 15
        }
      }
    }
  }
  JOINT pelvis_spine1
  {
    OFFSET 0 6.468898 -3.129235
    CHANNELS 3 Zrotation Xrotation Yrotation
    JOINT spine1
    {
      OFFSET 0 23.15396 4.99043
      CHANNELS 3 Zrotation Xrotation Yrotation
      JOINT spine2
      {
        OFFSET 0 20.79997 -5.064912
        CHANNELS 3 Zrotation Xrotation Yrotation
        JOINT neck
        {
          OFFSET 0 14.38658 9.616178
          CHANNELS 3 Zrotation Xrotation Yrotation
          End Site
          {
            OFFSET 0 20 0
          }
        }
      }
      JOINT right_manubrium
      {
        OFFSET -5.722621 16.35077 3.967754
        CHANNELS 3 Zrotation Xrotation Yrotation
        JOINT right_clavicle
        {
          OFFSET -13.16364 1.694482 -4.693211
          CHANNELS 3 Zrotation Xrotation Yrotation
          JOINT right_humerus
          {
            OFFSET -28.5034 -0.3100689 -2.792744
            CHANNELS 3 Zrotation Xrotation Yrotation
            JOINT right_radius
            {
              OFFSET -25.15693 0.02248979 -1.271978
              CHANNELS 3 Zrotation Xrotation Yrotation
              End Site
              {
                OFFSET -15 0 0
              }
            }
          }
        }
      }
      JOINT left_manubrium
      {
        OFFSET 5.722621 16.35077 3.967754
        CHANNELS 3 Zrotation Xrotation Yrotation
        JOINT left_clavicle
        {
          OFFSET 13.16364 1.694482 -4.693211
          CHANNELS 3 Zrotation Xrotation Yrotation
          JOINT left_humerus
          {
            OFFSET 29.39168 -1.063119 -2.237045
            CHANNELS 3 Zrotation Xrotation Yrotation
            JOINT left_radius
            {
              OFFSET 24.59957 -0.9528479 0.9047498
              CHANNELS 3 Zrotation Xrotation Yrotation
              End Site
              {
                OFFSET 15 -0 -0
              }
            }
          }
        }
      }
    }
  }
}
MOTION
Frames: 23
Frame Time: 0.0416666666667
0 103.5113 0 2.689266 0.2697925 0.1123392 3.325654 -16.2409 11.13908 -0 38.48663 -0 -3.484694 -19.3497 -2.621069 -9.399497 9.365264 -22.81892 -0 4.699658 -0 21.9464 -8.840183 30.65494 -2.708195 -1.968205 5.405091 1.852047 10.95095 -6.356126 2.06556 21.90322 6.429834 2.900462 -26.25485 10.74709 5.366492 -20.0778 10.75732 88.48771 40.31124 -18.70603 -0 0 13.36858 -7.614563 9.152518 4.073231 4.638083 -19.24892 -3.22883 -91.99161 22.95382 21.04721 0 0 -16.41768 14.86246 11.61366 -2.789215
0.3635294 103.4528 1.664051 2.039532 0.8933995 0.1820627 4.398339 -18.52053 11.71071 -0 37.83175 -0 -3.923411 -18.27979 -2.618814 -9.109948 9.394473 -22.92761 -0 4.953037 -0 21.81657 -9.694927 31.36328 -2.791195 -1.996212 5.341675 2.064535 10.91864 -6.534766 1.950769 21.74589 6.694805 2.916238 -26.63456 10.95408 5.204476 -20.23537 10.90276 88.79149 40.564 -19.06797 -0 0 13.24529 -7.262342 9.008883 4.163065 4.651211 -19.3647 -3.244976 -91.45987 22.80025 20.61852 0 0 -18.0318 15.1578 10.84143 -3.146097
0.5902777 102.0157 6.018841 0.8304111 -0.6831546 0.4685708 1.934001 -29.58769 -2.712045 -0 12.76071 -0 -8.227913 -0.2540579 -0.1854486 -6.664172 14.51209 -13.05651 -0 7.985596 -0 6.94886 -20.44797 17.22052 -2.298302 -1.81725 4.943432 2.719758 10.80829 -6.977602 1.638442 21.45766 6.891141 2.727574 -26.70063 10.76802 5.204716 -19.4423 11.3694 89.04156 39.63373 -20.38777 -0 0 11.72211 -6.61173 8.877884 4.71507 4.565418 -19.68091 -3.263344 -90.56384 22.75922 19.92278 0 0 -20.52941 14.597 9.949762 -2.124025
0.9071998 101.7771 7.81383 -0.4537233 2.736631 0.3480071 7.556102 -26.86318 12.03261 -0 30.33191 -0 -5.003605 -13.56855 -3.382021 -6.981471 10.35421 -23.33475 -0 5.836524 -0 11.09736 -19.74946 29.07966 -2.132605 -1.719168 4.683348 3.06288 10.66482 -7.247486 1.448424 21.26005 7.136645 2.705642 -26.75304 10.74652 5.124233 -19.08872 11.61519 89.19386 39.3443 -21.01746 -0 0 10.95828 -6.352053 8.820972 5.05224 4.685479 -19.94716 -3.194142 -89.75649 22.50228 19.13608 0 0 -22.40806 14.59037 9.321573 -1.960032
1.096206 100.5908 12.13138 0.2103498 1.753616 0.6705085 4.284019 -32.9534 1.249514 -0 13.31221 -0 -6.745919 -1.149847 -0.8589229 -6.701629 14.62981 -14.07337 -0 8.916061 -0 8.686315 -20.50578 18.98568 -1.840624 -1.44634 4.325156 3.27466 10.52306 -7.397638 1.302945 21.24563 7.175137 2.669651 -26.16108 10.40928 5.222764 -18.28227 11.81525 89.17499 38.79017 -21.48265 -0 0 9.684882 -6.546706 8.94373 5.510265 4.779791 -20.15506 -3.185501 -88.9728 22.18197 18.21386 0 0 -23.3247 14.26824 9.178073 -1.43303
1.388954 99.81938 15.64716 -0.4651618 3.504004 1.066054 6.644515 -33.58912 6.228843 -0 17.54749 -0 -6.141922 -4.632009 -1.645035 -6.566469 13.21211 -17.81715 -0 7.552829 -0 9.092155 -21.53161 22.29673 -1.695814 -1.18307 4.089974 3.24689 10.43994 -7.357673 1.272151 21.38767 7.097356 2.673243 -25.37928 10.07526 5.364751 -17.64851 11.86901 89.02978 38.49587 -21.43753 -0 0 8.788553 -7.021283 9.1357 5.842435 4.845057 -20.20088 -3.207155 -88.48827 21.90301 17.51495 0 0 -23.27561 14.01252 9.378149 -1.120116
1.632945 98.99785 20.19462 -0.6932588 3.642605 1.675599 6.700407 -34.99573 4.466354 -0 13.62217 -0 -6.331022 -0.8951148 -1.134346 -6.283519 14.89989 -15.12635 -0 11.05097 -0 7.79741 -20.60505 19.29407 -1.595276 -1.01152 3.93846 3.229017 10.3924 -7.336247 1.255294 21.48249 7.030865 2.673588 -24.8637 9.843548 5.456589 -17.22583 11.89984 88.94486 38.25454 -21.42841 -0 0 8.195253 -7.339608 9.252663 6.05529 4.876349 -20.23262 -3.235159 -88.18911 21.74011 17.06628 0 0 -23.20545 13.7996 9.512288 -0.8658537
1.875911 98.35556 25.20297 -1.194398 3.965226 2.42372 7.354851 -35.20378 4.707989 -0 12.73034 -0 -6.220993 0.1458374 -1.265944 -5.758584 15.60206 -14.51784 -0 13.77829 -0 5.140949 -20.26416 17.42336 -1.51726 -0.8572685 3.831143 3.175649 10.37199 -7.282713 1.263129 21.59775 6.930025 2.671645 -24.3682 9.620775 5.551095 -16.86745 11.90438 88.83901 38.03448 -21.33524 -0 0 7.730822 -7.669027 9.360377 6.22575 4.874074 -20.22051 -3.277829 -88.0125 21.62869 16.75056 0 0 -22.89958 13.56122 9.69842 -0.6075576
2.110113 98.07839 30.93522 -2.004796 3.992011 3.2011 8.270398 -34.06096 4.846438 -0 12.70466 -0 -6.10444 1.049225 -1.407046 -4.889329 16.19309 -13.18451 -0 19.70197 -0 1.386544 -18.01336 14.49565 -1.465732 -0.7621921 3.774031 3.137969 10.37005 -7.244926 1.273713 21.67444 6.849021 2.666329 -24.05679 9.471104 5.613323 -16.64657 11.90309 88.76632 37.87148 -21.26715 -0 0 7.459875 -7.880125 9.422558 6.325884 4.856235 -20.20271 -3.314039 -87.93818 21.57861 16.59157 0 0 -22.63064 13.37366 9.827126 -0.4073353
2.36331 98.30476 37.1863 -2.940106 3.820629 3.759248 9.160438 -31.29491 5.234843 -0 13.80152 -0 -5.954532 0.4367947 -1.707754 -3.765419 15.36816 -12.07385 -0 27.79465 -0 -3.032496 -14.43935 11.47374 -1.413241 -0.6823343 3.739393 3.101982 10.38624 -7.207424 1.290022 21.74601 6.750263 2.653565 -23.78753 9.323019 5.674931 -16.45721 11.8979 88.69233 37.69091 -21.19917 -0 0 7.251353 -8.065061 9.469202 6.402261 4.813775 -20.17231 -3.359789 -87.93241 21.56593 16.52112 0 0 -22.27549 13.14957 9.958543 -0.1688592
2.670479 99.07318 43.59412 -3.664558 3.588982 3.886792 9.631879 -27.21226 5.424085 -0 15.09646 -0 -6.233858 -1.54139 -1.858519 -2.766677 12.3926 -11.29191 -0 37.44534 -0 -6.490103 -10.06666 9.030023 -1.37385 -0.6080866 3.73669 3.037084 10.42203 -7.139285 1.325128 21.83716 6.619579 2.637245 -23.50774 9.168871 5.745597 -16.30311 11.8758 88.57613 37.52046 -21.03993 -0 0 7.13632 -8.272674 9.515411 6.460166 4.746216 -20.10376 -3.411708 -88.01723 21.58366 16.55033 0 0 -21.71651 12.89033 10.14372 0.09056397
3.004836 100.1706 49.94304 -3.570297 2.854244 3.554722 9.2086 -22.77365 5.030065 -0 15.2893 -0 -6.534586 -3.31785 -2.064047 -2.365608 8.615453 -10.54848 -0 46.28087 -0 -8.11998 -6.79902 7.759511 -1.354908 -0.5313686 3.762545 2.931077 10.46827 -7.028348 1.381977 21.95676 6.460568 2.622539 -23.18382 9.007602 5.825736 -16.17883 11.83313 88.39505 37.37442 -20.74555 -0 0 7.115521 -8.531943 9.571174 6.5135 4.667129 -19.99345 -3.460101 -88.17294 21.61338 16.64674 0 0 -20.95365 12.61018 10.39933 0.3505093
3.295716 101.421 56.22294 -2.752975 1.273023 2.913351 8.220578 -18.046 4.535506 -0 14.81964 -0 -6.302865 -4.270072 -2.536341 -2.458149 5.126702 -9.669846 -0 53.59734 -0 -8.51853 -5.02569 7.923221 -1.369816 -0.4690019 3.829079 2.781524 10.51964 -6.871187 1.461883 22.09566 6.290841 2.613097 -22.86633 8.873023 5.904597 -16.13013 11.76525 88.14863 37.3032 -20.29945 -0 0 7.252573 -8.813136 9.6312 6.544173 4.587601 -19.83913 -3.489823 -88.4183 21.65887 16.84195 0 0 -20.01565 12.3652 10.72152 0.5499855
3.510544 102.7735 62.37128 -1.730058 -0.5923123 2.175549 7.138034 -13.1491 4.200787 -0 14.13704 -0 -5.802877 -4.968416 -2.898528 -2.700813 1.402487 -8.887515 -0 59.11854 -0 -8.44575 -4.249782 9.024647 -1.422847 -0.4398485 3.94898 2.589568 10.5762 -6.66951 1.566264 22.2429 6.117051 2.608844 -22.60953 8.787898 5.976137 -16.19415 11.66646 87.84038 37.33239 -19.70561 -0 0 7.604002 -9.083477 9.688724 6.527297 4.511545 -19.64176 -3.492018 -88.78992 21.73586 17.18678 0 0 -18.89465 12.18583 11.11634 0.6601895
3.657093 104.1285 68.31316 -0.7431992 -2.285847 1.459562 6.10068 -8.216687 3.911895 -0 13.11399 -0 -5.220982 -5.707917 -2.859459 -2.826801 -3.104434 -8.186755 -0 62.4758 -0 -8.286516 -4.086328 10.47424 -1.515582 -0.4538185 4.129259 2.346939 10.63472 -6.420445 1.699834 22.3959 5.935319 2.612083 -22.42553 8.75558 6.039366 -16.38537 11.52555 87.45784 37.4612 -18.9498 -0 0 8.20898 -9.348272 9.746781 6.447976 4.450237 -19.40565 -3.457573 -89.31412 21.85153 17.70211 0 0 -17.54437 12.07764 11.61567 0.6766227
3.763026 105.3173 73.9829 0.08594131 -3.473288 0.8234197 5.188249 -3.39081 3.475387 -0 11.61122 -0 -4.814247 -6.786132 -2.275856 -2.608624 -8.679406 -7.461238 -0 62.84016 -0 -8.008898 -4.309576 11.87097 -1.639505 -0.5135252 4.361546 2.054792 10.68312 -6.135767 1.8609 22.5459 5.742813 2.627074 -22.29924 8.759716 6.092004 -16.68582 11.33617 86.98695 37.63742 -18.04471 -0 0 9.064478 -9.632822 9.811268 6.309392 4.429876 -19.15744 -3.37406 -89.97532 21.99899 18.34832 0 0 -15.97275 12.01499 12.24572 0.6342046
3.866591 106.1372 79.35026 0.624674 -3.888871 0.2895151 4.550075 1.036558 2.758108 -0 9.647049 -0 -4.885647 -8.530815 -1.206506 -1.835142 -15.06631 -6.529788 -0 59.17296 -0 -7.257392 -4.684318 12.94475 -1.776136 -0.6055246 4.617618 1.724462 10.69568 -5.83633 2.03908 22.68255 5.543752 2.660838 -22.17078 8.763797 6.131242 -17.0361 11.10352 86.39798 37.764 -17.00656 -0 0 10.11362 -9.989663 9.892675 6.151149 4.492256 -18.93884 -3.21963 -90.69971 22.14423 19.01022 0 0 -14.25632 11.94534 13.02247 0.5993361
4.004516 106.4177 84.48083 0.7544974 -3.65715 -0.1576348 4.354626 4.774869 1.92485 -0 7.636713 -0 -5.394599 -10.95888 -0.1349921 -0.4067344 -21.03599 -5.163382 -0 51.26839 -0 -5.713219 -4.9177 13.74952 -1.899197 -0.7022511 4.852673 1.389176 10.64086 -5.553392 2.21004 22.79143 5.361027 2.718134 -21.97277 8.730658 6.151121 -17.35182 10.85619 85.67013 37.7399 -15.87246 -0 0 11.24192 -10.45916 9.995868 6.047966 4.673399 -18.79184 -2.970609 -91.35968 22.22984 19.52811 0 0 -12.57809 11.8156 13.90817 0.6376319
4.198865 106.1026 89.52642 0.4776767 -3.420412 -0.5813572 4.61275 7.87708 1.347532 -0 6.400186 -0 -5.995083 -13.59645 0.2811969 1.362882 -24.95198 -3.556676 -0 40.87586 -0 -3.69337 -4.883983 14.7121 -1.99003 -0.8016239 5.035231 1.112479 10.51905 -5.341341 2.339081 22.84204 5.237441 2.79091 -21.76357 8.673727 6.141148 -17.60369 10.63976 84.89661 37.55293 -14.8096 -0 0 12.32429 -10.95531 10.09654 6.022463 4.958229 -18.74642 -2.640443 -91.86095 22.24335 19.83793 0 0 -11.22669 11.63637 14.76317 0.7483138
4.460092 105.2686 94.63678 -0.03025776 -3.682761 -1.073017 5.052847 10.72503 1.079439 -0 6.475468 -0 -6.524046 -15.88826 -0.03434982 2.783756 -26.407 -2.460613 -0 30.53037 -0 -2.073501 -4.779215 16.09405 -2.049571 -0.946253 5.171853 0.9493167 10.3784 -5.260584 2.406353 22.80062 5.197123 2.861612 -21.71423 8.648108 6.103768 -17.84291 10.47937 84.2731 37.28596 -14.09488 -0 0 13.29218 -11.28155 10.15712 5.980072 5.289218 -18.8225 -2.288408 -92.22904 22.26762 20.04021 0 0 -10.41893 11.47242 15.45319 0.8835455
4.803027 104.097 99.93748 -0.5504636 -4.223798 -1.669918 5.275653 13.46095 0.8540202 -0 7.774905 -0 -7.08005 -17.52092 -0.5355892 3.442474 -26.33777 -2.323613 -0 21.65204 -0 -1.273624 -4.727512 17.53198 -2.084371 -1.160963 5.280658 0.9008266 10.2565 -5.324592 2.418914 22.66589 5.224095 2.921865 -21.88083 8.669857 6.05618 -18.10059 10.36937 83.88389 36.98539 -13.8415 -0 0 14.13877 -11.35225 10.17087 5.842254 5.635344 -19.02186 -1.952831 -92.52767 22.38154 20.22714 0 0 -10.15205 11.33292 15.97859 1.048977
5.241581 102.814 105.5539 -0.8973413 -4.77362 -2.333727 4.987323 16.01103 0.5592781 -0 10.21863 -0 -7.687421 -18.06185 -0.7924582 3.238888 -25.45323 -3.15119 -0 15.09343 -0 -1.234459 -4.715193 18.69582 -2.092429 -1.42913 5.367901 0.9399853 10.15441 -5.506674 2.390406 22.4608 5.290595 2.972364 -22.18304 8.708002 6.010854 -18.35433 10.3011 83.6717 36.62 -13.96749 -0 0 14.8766 -11.22407 10.153 5.627354 5.998038 -19.32795 -1.631885 -92.77599 22.60265 20.39825 0 0 -10.32852 11.14847 16.4029 1.317564
5.772162 101.6496 111.5802 -0.9280536 -5.3205 -2.992329 4.079771 18.28836 0.2346783 -0 13.81289 -0 -8.336873 -16.96855 -0.6310085 2.19355 -24.03114 -4.812958 -0 11.5076 -0 -1.74141 -4.795768 19.60373 -2.064249 -1.719632 5.431833 1.045083 10.06205 -5.77741 2.327336 22.20845 5.376379 3.013956 -22.51921 8.721614 5.973065 -18.56528 10.27527 83.5558 36.14399 -14.36097 -0 0 15.50254 -10.98015 10.11998 5.393091 6.379689 -19.72222 -1.318252 -92.95811 22.93018 20.5168 0 0 -10.89661 10.82418 16.7648 1.787257
